<?xml version="1.0" encoding="utf-8"?>
<!-- Generator: Adobe Illustrator 24.2.1, SVG Export Plug-In . SVG Version: 6.00 Build 0)  -->
<svg version="1.1" id="Online_course" xmlns="http://www.w3.org/2000/svg" xmlns:xlink="http://www.w3.org/1999/xlink" x="0px"
	 y="0px" viewBox="0 0 86.8 67.2" style="enable-background:new 0 0 86.8 67.2;" xml:space="preserve">
<style type="text/css">
	.st0{fill:#6222CC;}
</style>
<g id="Group_129" transform="translate(0.1 0.1)">
	<path id="Path_424" class="st0" d="M73,44.1c0-0.8-0.2-1.5-0.6-2.2c2.3-0.2,4-2.3,3.8-4.6c-0.2-1.8-1.4-3.2-3.2-3.7v-7.6
		c0-5.3-4.3-9.5-9.6-9.6h-9.6c-2.3,0-4.2,1.9-4.2,4.2c0,2,1.4,3.8,3.4,4.2c-1,1.6-2.3,4.2-2.3,6.5V32l2.1,1.1v0.8
		c0,1.5,0.8,2.8,2.1,3.4c0.5,0.3,1.1,0.4,1.7,0.4h1.5v2.4l-2.9,0.7c-3,0.8-5.3,3.4-5.6,6.5h-8.6v-0.8c0-1.8-0.6-3.5-1.7-5
		c-1.3-1.7-3.2-2.9-5.3-3.2l-2-0.3c1.3-1.2,2.2-2.8,2.5-4.5h1.1c1.8,0,3.2-1.4,3.2-3.2c0-0.7-0.3-1.5-0.7-2c0.5-0.8,0.7-1.7,0.7-2.6
		v-0.9c0-1.5-0.7-2.9-1.8-3.9l-2.9-2.5c-1.5-1.2-3.3-1.9-5.3-1.9H27c-2.6,0-5,1.2-6.6,3.3L19.5,20c-2.7,0.7-4.3,3.4-3.7,6.1
		c0.1,0.5,0.3,1,0.6,1.5l0.2,0.4c-1.3,1.2-1.4,3.2-0.2,4.5c0.6,0.6,1.4,1,2.3,1H20c0.3,1.7,1.1,3.4,2.5,4.5l-2,0.3
		c-2.1,0.3-4,1.5-5.3,3.2c-1.1,1.4-1.7,3.2-1.7,5v0.8h-3.2v19.1h65.8V47.3H73V44.1z M66.6,47.3v-3.2c0-1.2,1-2.1,2.1-2.1
		c1.2,0,2.1,0.9,2.1,2.1v3.2H66.6z M51.8,20.8c0-1.2,1-2.1,2.1-2.1h9.6c4.1,0,7.4,3.3,7.4,7.4v7.6c-1.9,0.5-3.2,2.2-3.2,4.1h2.1
		c0-1.2,1-2.1,2.1-2.1c1.2,0,2.1,1,2.1,2.1c0,1.2-1,2.1-2.1,2.1h-2c-1.2,0-2.3-0.5-3.1-1.3c-0.8-0.8-1.3-1.9-1.3-3.1v-1.7l0.6-1.2
		c0.3-0.6,0.4-1.2,0.4-1.9v-0.3c0-2-1.5-3.8-3.5-4.2l-0.4-1.1c-0.4-1.3-1.6-2.2-3-2.2h-5.9C52.7,22.9,51.8,21.9,51.8,20.8L51.8,20.8
		z M62.4,37.7v-2.1h-5.7c-0.3,0-0.5-0.1-0.8-0.2c-0.6-0.3-1-0.9-0.9-1.5v-2.1l-2.1-1c0.5-2.1,1.4-4,2.6-5.7h4.3c0.5,0,0.9,0.3,1,0.7
		l0.8,2.5h0.8c1.2,0,2.1,0.9,2.1,2.1v0.3c0,0.3-0.1,0.7-0.2,0.9l-0.8,1.7v2.2c0,1.6,0.6,3.2,1.7,4.4h-4.9v-2.1H62.4z M55.8,42.9
		l3.5-0.9h5.8c-0.4,0.6-0.6,1.4-0.6,2.1v3.2H51.9C52.1,45.2,53.7,43.4,55.8,42.9L55.8,42.9z M47.5,49.4h12.7V60H47.5L47.5,49.4z
		 M24.2,49.4h12.7V60H24.2L24.2,49.4z M25.3,39.6c1.4,0.4,2.9,0.4,4.2,0v0.3c0,1.2-1,2.1-2.1,2.1c-1.2,0-2.1-1-2.1-2.1V39.6z
		 M35.9,31.4h-1.1v-2.1h1.1c0.6,0,1.1,0.4,1.1,1C37,30.9,36.5,31.4,35.9,31.4C35.9,31.4,35.9,31.4,35.9,31.4L35.9,31.4z M17.8,30.3
		c0-0.6,0.5-1.1,1.1-1.1H20v2.1h-1.1C18.3,31.4,17.8,30.9,17.8,30.3z M20.8,27.1h-2c-0.1,0-0.1,0-0.2,0l-0.4-0.7
		c-0.9-1.4-0.4-3.2,0.9-4c0.3-0.2,0.5-0.3,0.8-0.4l1.6-0.4l0.2-0.3c1.1-1.7,3-2.7,5.1-2.7H29c1.4,0,2.8,0.5,3.9,1.4l2.9,2.5
		c0.7,0.6,1.1,1.4,1.1,2.2v0.9c0,0.5-0.2,1.1-0.4,1.5c-0.2,0-0.4-0.1-0.6-0.1h-2l-2.3-0.5c-1.7-0.3-3.3-1.2-4.5-2.4l-0.8-0.8
		l-0.8,0.8c-1.3,1.3-2.8,2.2-4.6,2.8L20.8,27.1z M22.1,32.4v-3.5c1.6-0.6,3-1.4,4.3-2.5c1.4,1.2,3.1,2,4.9,2.3l1.5,0.3v3.4
		c0,2.9-2.4,5.3-5.4,5.2C24.4,37.6,22.1,35.3,22.1,32.4L22.1,32.4z M15.7,46.5c0-1.3,0.4-2.6,1.2-3.7c0.9-1.3,2.4-2.1,3.9-2.4
		l2.3-0.4c0.1,2.3,2.1,4.1,4.4,4c2.2-0.1,4-1.9,4-4l2.3,0.4c1.6,0.3,3,1.1,3.9,2.4c0.8,1.1,1.2,2.4,1.2,3.7v0.8H15.7V46.5z
		 M74.1,64.3H12.5V49.4h9.6v12.7h17V49.4h6.4v12.7h17V49.4h11.7V64.3z"/>
	<path id="Path_425" class="st0" d="M49.7,51.5h8.5v2.1h-8.5V51.5z"/>
	<path id="Path_426" class="st0" d="M49.7,55.8h8.5v2.1h-8.5V55.8z"/>
	<path id="Path_427" class="st0" d="M26.3,51.5h8.5v2.1h-8.5V51.5z"/>
	<path id="Path_428" class="st0" d="M26.3,55.8h8.5v2.1h-8.5V55.8z"/>
	<path id="Path_429" class="st0" d="M47.9,17.6c0.8,0,1.5-0.4,2-1l2.4-3.3h11.1c1.8,0,3.2-1.4,3.2-3.2V3.8c0-1.8-1.4-3.2-3.2-3.2
		H48.6c-1.8,0-3.2,1.4-3.2,3.2v11.3C45.4,16.5,46.5,17.6,47.9,17.6z M47.5,3.8c0-0.6,0.5-1.1,1.1-1.1h14.9c0.6,0,1.1,0.5,1.1,1.1
		v6.4c0,0.6-0.5,1.1-1.1,1.1H51.3l-3.1,4.1c-0.1,0.2-0.4,0.2-0.5,0c-0.1-0.1-0.1-0.1-0.1-0.2L47.5,3.8z"/>
	<path id="Path_430" class="st0" d="M21,13.3h13.3l2.4,3.3c0.8,1.1,2.4,1.3,3.5,0.5c0.6-0.5,1-1.2,1-2V3.8c0-1.8-1.4-3.2-3.2-3.2H21
		c-1.8,0-3.2,1.4-3.2,3.2v6.4C17.8,11.9,19.3,13.3,21,13.3z M19.9,3.8c0-0.6,0.5-1.1,1.1-1.1h17c0.6,0,1.1,0.5,1.1,1.1v11.3
		c0,0.2-0.2,0.4-0.4,0.3c-0.1,0-0.2-0.1-0.2-0.1l-3.1-4.1H21c-0.6,0-1.1-0.5-1.1-1.1V3.8z"/>
	<path id="Path_431" class="st0" d="M34.8,4.8h2.1V7h-2.1V4.8z"/>
	<path id="Path_432" class="st0" d="M26.3,4.8h2.1V7h-2.1V4.8z"/>
	<path id="Path_433" class="st0" d="M30.6,4.8h2.1V7h-2.1V4.8z"/>
	<path id="Path_434" class="st0" d="M22.1,4.8h2.1V7h-2.1V4.8z"/>
	<path id="Path_435" class="st0" d="M49.7,4.8h12.7V7H49.7V4.8z"/>
</g>
</svg>
