<svg width="32" height="27" viewBox="0 0 32 27" fill="none" xmlns="http://www.w3.org/2000/svg">
<path d="M16.183 0.750032L31.183 12.4167C31.3333 12.5336 31.4549 12.6832 31.5385 12.8542C31.6221 13.0252 31.6656 13.213 31.6656 13.4034C31.6656 13.5937 31.6221 13.7816 31.5385 13.9526C31.4549 14.1236 31.3333 14.2732 31.183 14.3901L16.1814 26.0567C15.9967 26.2002 15.7754 26.2889 15.5428 26.3129C15.3101 26.3368 15.0754 26.295 14.8654 26.1923C14.6553 26.0895 14.4783 25.9298 14.3544 25.7314C14.2306 25.5331 14.1648 25.3039 14.1647 25.0701V16.6084L2.01471 26.0584C1.82989 26.2019 1.60848 26.2907 1.37569 26.3146C1.14291 26.3385 0.908087 26.2965 0.697947 26.1936C0.487817 26.0906 0.310817 25.9307 0.187077 25.7321C0.063347 25.5334 -0.00215267 25.3041 -0.00195267 25.0701L-0.000292798 1.73669C-0.000172798 1.50282 0.0655473 1.27368 0.189407 1.0753C0.313267 0.876922 0.490287 0.717272 0.700367 0.614492C0.910437 0.511712 1.14514 0.469922 1.37778 0.493882C1.61041 0.517842 1.83167 0.606592 2.01638 0.750032L14.163 10.1984L14.1664 1.73669C14.1665 1.50282 14.2322 1.27368 14.3561 1.0753C14.4799 0.876922 14.657 0.717272 14.867 0.614492C15.0771 0.511712 15.3118 0.469922 15.5444 0.493882C15.7771 0.517842 15.9983 0.606592 16.183 0.750032ZM16.6664 4.29337L16.6647 22.5151L28.3814 13.4034L16.6647 4.29337H16.6664ZM2.49971 4.29337L2.49805 22.5151L14.1647 13.4417V13.3651L2.49971 4.29337Z" fill="#6222CC"/>
</svg>
